# xmcd CD database file
#
# Track frame offsets:
#	150
#	14615
#	34585
#	59809
#	72321
#	88451
#	112294
#	130910
#	156757
#	171666
#	198251
#	217362
#
# Disc length: 3093 seconds
#
# Revision: 0
# Processed by: cddbd v1.4PL0 Copyright (c) Steve Scherf et al.
# Submitted via: CDex 1.40Release
#
DISCID=c60c130c
DTITLE=Ali Farka Toure - Niafunke
DYEAR=1999
DGENRE=Blues
TTITLE0=Ali's Here
TTITLE1=Allah Uya 
TTITLE2=Mali Dje 
TTITLE3=Saukare
TTITLE4=Hilly Yoro
TTITLE5=Tulumba
TTITLE6=Instumental
TTITLE7=ASCO
TTITLE8=Jangali Famata
TTITLE9=Howkouna
TTITLE10=Cousins
TTITLE11=Pieter Botha
EXTD=YEAR: 1999 ID3G: 0
EXTT0=
EXTT1=
EXTT2=
EXTT3=
EXTT4=
EXTT5=
EXTT6=
EXTT7=
EXTT8=
EXTT9=
EXTT10=
EXTT11=
PLAYORDER=
